<?xml version="1.0" encoding="UTF-8" standalone="no"?>
<svg
   xmlns:dc="http://purl.org/dc/elements/1.1/"
   xmlns:cc="http://creativecommons.org/ns#"
   xmlns:rdf="http://www.w3.org/1999/02/22-rdf-syntax-ns#"
   xmlns:svg="http://www.w3.org/2000/svg"
   xmlns="http://www.w3.org/2000/svg"
   xmlns:xlink="http://www.w3.org/1999/xlink"
   xml:space="preserve"
   id="svg1.1"
   viewBox="0 0 263.80751 450.02459"
   height="450.0246"
   width="263.80753"
   version="1.1">
   <defs
     id="defs4" /><g
     id="layer1"
     transform="translate(21.105917,-602.78108)"><path
       style="fill:none;fill-rule:evenodd;stroke:#0000ff;stroke-width:4;stroke-linecap:butt;stroke-linejoin:miter;stroke-miterlimit:4;stroke-dasharray:8, 8;stroke-dashoffset:0;stroke-opacity:1"
       d="m 161.96592,9.0244941 c 0,408.4771059 0,408.4771059 0,408.4771059 l -0.47497,0"
       id="path6325"
       transform="translate(0,606.36218)" /><path
       style="fill:#408700;fill-opacity:1;stroke:none;stroke-width:2;stroke-miterlimit:4;stroke-dasharray:8, 8;stroke-dashoffset:0;stroke-opacity:1"
       d="m 203.90825,640.4381 c -2.208,0 -4,1.79199 -4,4 0,2.208 1.792,3.99999 4,4 2.208,0 4,-1.79201 4,-4 0,-2.208 -1.792,-4.00001 -4,-4 z m 0,8.1875 c -2.07,0 -3.83438,0.76712 -4.59375,1.84375 l -0.0312,-0.0312 -8,11.46875 2.4375,1.71875 6.1875,-8.84375 0,31.65625 3,0 0,-15 2,0 0,15 3,0 0,-31.59375 6.125,8.78125 2.46875,-1.71875 -7.875,-11.25 c -0.67979,-1.17262 -2.53375,-2.03125 -4.71875,-2.03125 z"
       id="path2453" /><use
       x="0"
       y="0"
       xlink:href="#path2453"
       id="use2647"
       transform="translate(0,73.620873)"
       width="221"
       height="446" /><use
       x="0"
       y="0"
       xlink:href="#path2453"
       id="use2649"
       transform="translate(0,127.76784)"
       width="221"
       height="446" /><use
       x="0"
       y="0"
       xlink:href="#path2453"
       id="use2651"
       transform="translate(0,191.88924)"
       width="221"
       height="446" /><use
       x="0"
       y="0"
       xlink:href="#path2453"
       id="use2653"
       transform="translate(0,278.80937)"
       width="221"
       height="446" /><use
       x="0"
       y="0"
       xlink:href="#path2453"
       id="use2655"
       transform="translate(0,335.80618)"
       width="221"
       height="446" /><use
       x="0"
       y="0"
       xlink:href="#path2453"
       id="use2657"
       transform="translate(-69.821086,-29.923323)"
       width="221"
       height="446" /><use
       x="0"
       y="0"
       xlink:href="#use2657"
       id="use2659"
       transform="translate(0,61.746539)"
       width="221"
       height="446" /><use
       x="0"
       y="0"
       xlink:href="#use2659"
       id="use2661"
       transform="translate(0,77.42066)"
       width="221"
       height="446" /><use
       x="0"
       y="0"
       xlink:href="#use2661"
       id="use2663"
       transform="translate(0,149.14164)"
       width="221"
       height="446" /><use
       x="0"
       y="0"
       xlink:href="#path2453"
       id="use2665"
       transform="translate(-125.86794,71.72098)"
       width="221"
       height="446" /><use
       x="0"
       y="0"
       xlink:href="#use2665"
       id="use2667"
       transform="translate(0,52.247071)"
       width="221"
       height="446" /><use
       x="0"
       y="0"
       xlink:href="#use2667"
       id="use2669"
       transform="translate(0,56.046858)"
       width="221"
       height="446" /><use
       x="0"
       y="0"
       xlink:href="#use2669"
       id="use2671"
       transform="translate(0,84.070288)"
       width="221"
       height="446" /><use
       x="0"
       y="0"
       xlink:href="#use2671"
       id="use2673"
       transform="translate(0,71.72098)"
       width="221"
       height="446" /><use
       x="0"
       y="0"
       xlink:href="#path2453"
       id="use2675"
       transform="translate(-186.18956,148.19169)"
       width="221"
       height="446" /><use
       x="0"
       y="0"
       xlink:href="#use2675"
       id="use2677"
       transform="translate(0,57.946752)"
       width="221"
       height="446" /><use
       x="0"
       y="0"
       xlink:href="#use2677"
       id="use2679"
       transform="translate(0,57.946752)"
       width="221"
       height="446" /><use
       x="0"
       y="0"
       xlink:href="#use2679"
       id="use2681"
       transform="translate(0,71.72098)"
       width="221"
       height="446"
       style="fill:#ff0000;fill-opacity:1;stroke:#ff0000;stroke-width:2;stroke-miterlimit:4;stroke-dasharray:none;stroke-opacity:1" /><g
       id="g6472"
       style="fill:#ff0000;fill-opacity:1;stroke:none"><path
         style="fill:#ff0000;fill-opacity:1;fill-rule:evenodd;stroke:none;stroke-width:2;stroke-linecap:butt;stroke-linejoin:miter;stroke-miterlimit:4;stroke-dasharray:none;stroke-opacity:1"
         d="m 35.625,996.75 0,2 20.40625,0 0,-2 -20.40625,0 z"
         id="path5778" /><path
         style="fill:#ff0000;fill-opacity:1;fill-rule:evenodd;stroke:none;stroke-width:0.4pt;marker-start:none"
         d="m 60.662858,997.74024 -6.92,3.99996 0,-7.99996 6.92,4 z"
         id="path6478" /></g><g
       id="g6464"
       style="fill:#ff0000;fill-opacity:1;stroke:none"><path
         style="fill:#ff0000;fill-opacity:1;fill-rule:evenodd;stroke:none;stroke-width:2;stroke-linecap:butt;stroke-linejoin:miter;stroke-miterlimit:4;stroke-dasharray:none;stroke-opacity:1"
         d="m 35.625,925.5 0,2 20.40625,0 0,-2 -20.40625,0 z"
         id="path6297" /><path
         style="fill:#ff0000;fill-opacity:1;fill-rule:evenodd;stroke:none;stroke-width:0.4pt;marker-start:none"
         d="m 60.662858,926.49423 -6.92,4 0,-8 6.92,4 z"
         id="path6470" /></g><g
       id="g6456"
       style="fill:#ff0000;fill-opacity:1;stroke:none"><path
         style="fill:#ff0000;fill-opacity:1;fill-rule:evenodd;stroke:none;stroke-width:2;stroke-linecap:butt;stroke-linejoin:miter;stroke-miterlimit:4;stroke-dasharray:none;stroke-opacity:1"
         d="M 55.4375,849.71875 35,865.875 l 1.25,1.5625 20.40625,-16.15625 -1.21875,-1.5625 z"
         id="path6299" /><path
         style="fill:#ff0000;fill-opacity:1;fill-rule:evenodd;stroke:none;stroke-width:0.4pt;marker-start:none"
         d="m 59.667721,847.63548 -2.947215,7.4297 -4.961884,-6.27533 7.909099,-1.15437 z"
         id="path6462" /></g><g
       id="g6448"
       style="fill:#ff0000;fill-opacity:1;stroke:none"><path
         style="fill:#ff0000;fill-opacity:1;fill-rule:evenodd;stroke:none;stroke-width:2;stroke-linecap:butt;stroke-linejoin:miter;stroke-miterlimit:4;stroke-dasharray:none;stroke-opacity:1"
         d="m 36.25,814.09375 -1.25,1.5625 20.40625,16.625 1.28125,-1.5625 -20.4375,-16.625 z"
         id="path6301" /><path
         style="fill:#ff0000;fill-opacity:1;fill-rule:evenodd;stroke:none;stroke-width:0.4pt;marker-start:none"
         d="m 59.626852,834.4135 -7.891975,-1.26615 5.050172,-6.2045 2.841803,7.47065 z"
         id="path6454" /></g><g
       id="g6440"
       style="fill:#ff0000;fill-opacity:1;stroke:none"><path
         style="fill:#ff0000;fill-opacity:1;fill-rule:evenodd;stroke:none;stroke-width:2;stroke-linecap:butt;stroke-linejoin:miter;stroke-miterlimit:4;stroke-dasharray:none;stroke-opacity:1"
         d="m 95.46875,925.5 0,2 16.15625,0 0,-2 -16.15625,0 z"
         id="path6303" /><path
         style="fill:#ff0000;fill-opacity:1;fill-rule:evenodd;stroke:none;stroke-width:0.4pt;marker-start:none"
         d="m 116.23474,926.49423 -6.92,4 0,-8 6.92,4 z"
         id="path6446" /></g><g
       id="g6432"
       style="fill:#ff0000;fill-opacity:1;stroke:none"><path
         style="fill:#ff0000;fill-opacity:1;fill-rule:evenodd;stroke:none;stroke-width:2;stroke-linecap:butt;stroke-linejoin:miter;stroke-miterlimit:4;stroke-dasharray:none;stroke-opacity:1"
         d="M 112.21875,957.75 92.75,985.78125 l 1.65625,1.125 19.46875,-28.03125 -1.65625,-1.125 z"
         id="path6305" /><path
         style="fill:#ff0000;fill-opacity:1;fill-rule:evenodd;stroke:none;stroke-width:0.4pt;marker-start:none"
         d="m 115.67781,954.52684 -0.66419,7.96526 -6.56951,-4.56526 7.2337,-3.4 z"
         id="path6438" /></g><g
       id="g6424"
       style="fill:#ff0000;fill-opacity:1;stroke:none"><path
         style="fill:#ff0000;fill-opacity:1;fill-rule:evenodd;stroke:none;stroke-width:2;stroke-linecap:butt;stroke-linejoin:miter;stroke-miterlimit:4;stroke-dasharray:none;stroke-opacity:1"
         d="m 92.9375,857.96875 -1.59375,1.21875 22.8125,29.90625 L 115.75,887.875 92.9375,857.96875 Z"
         id="path6307" /><path
         style="fill:#ff0000;fill-opacity:1;fill-rule:evenodd;stroke:none;stroke-width:0.4pt;marker-start:none"
         d="m 117.74105,892.16808 -7.37555,-3.08021 6.36345,-4.84835 1.0121,7.92856 z"
         id="path6430" /></g><g
       id="g6416"
       style="fill:#ff0000;fill-opacity:1;stroke:none"><path
         style="fill:#ff0000;fill-opacity:1;fill-rule:evenodd;stroke:none;stroke-width:2;stroke-linecap:butt;stroke-linejoin:miter;stroke-miterlimit:4;stroke-dasharray:none;stroke-opacity:1"
         d="m 111.0625,773.6875 -15.6875,10.90625 1.15625,1.65625 15.65625,-10.9375 -1.125,-1.625 z"
         id="path6309" /><path
         style="fill:#ff0000;fill-opacity:1;fill-rule:evenodd;stroke:none;stroke-width:0.4pt;marker-start:none"
         d="m 115.4057,771.86337 -3.38999,7.23839 -4.57434,-6.56318 7.96433,-0.67521 z"
         id="path6422" /></g><g
       id="g6408"
       style="fill:#ff0000;fill-opacity:1;stroke:none"><path
         style="fill:#ff0000;fill-opacity:1;fill-rule:evenodd;stroke:none;stroke-width:2;stroke-linecap:butt;stroke-linejoin:miter;stroke-miterlimit:4;stroke-dasharray:none;stroke-opacity:1"
         d="M 96.5625,743.78125 95.34375,745.375 111,757.25 l 1.21875,-1.59375 -15.65625,-11.875 z"
         id="path6311" /><path
         style="fill:#ff0000;fill-opacity:1;fill-rule:evenodd;stroke:none;stroke-width:0.4pt;marker-start:none"
         d="m 115.29812,759.24117 -7.93131,-0.99033 4.83086,-6.37674 3.10045,7.36707 z"
         id="path6414" /></g><g
       id="g6400"
       style="fill:#ff0000;fill-opacity:1;stroke:none"><path
         style="fill:#ff0000;fill-opacity:1;fill-rule:evenodd;stroke:none;stroke-width:2;stroke-linecap:butt;stroke-linejoin:miter;stroke-miterlimit:4;stroke-dasharray:none;stroke-opacity:1"
         d="m 180.75,869.75 -34.6875,34.1875 1.40625,1.40625 34.6875,-34.1875 L 180.75,869.75 Z"
         id="path6315" /><path
         style="fill:#ff0000;fill-opacity:1;fill-rule:evenodd;stroke:none;stroke-width:0.4pt;marker-start:none"
         d="m 184.72626,867.20595 -2.11796,7.70719 -5.6177,-5.69574 7.73566,-2.01145 z"
         id="path6406" /></g><g
       id="g6392"
       style="fill:#ff0000;fill-opacity:1;stroke:none"><path
         style="fill:#ff0000;fill-opacity:1;fill-rule:evenodd;stroke:none;stroke-width:2;stroke-linecap:butt;stroke-linejoin:miter;stroke-miterlimit:4;stroke-dasharray:none;stroke-opacity:1"
         d="m 148.46875,786.6875 -1.53125,1.28125 33.75,40.375 1.53125,-1.28125 -33.75,-40.375 z"
         id="path6317" /><path
         style="fill:#ff0000;fill-opacity:1;fill-rule:evenodd;stroke:none;stroke-width:0.4pt;marker-start:none"
         d="m 184.39901,831.24246 -7.50614,-2.74668 6.13984,-5.12857 1.3663,7.87525 z"
         id="path6398" /></g><g
       id="g6384"
       style="fill:#ff0000;fill-opacity:1;stroke:none"><path
         style="fill:#ff0000;fill-opacity:1;fill-rule:evenodd;stroke:none;stroke-width:2;stroke-linecap:butt;stroke-linejoin:miter;stroke-miterlimit:4;stroke-dasharray:none;stroke-opacity:1"
         d="m 181.09375,673.8125 -32.3125,11.875 0.71875,1.875 32.28125,-11.875 -0.6875,-1.875 z"
         id="path6321" /><path
         style="fill:#ff0000;fill-opacity:1;fill-rule:evenodd;stroke:none;stroke-width:0.4pt;marker-start:none"
         d="m 185.7723,673.16552 -5.1147,6.14217 -2.76053,-7.50863 7.87523,1.36646 z"
         id="path6390" /></g><g
       id="g6376"
       style="fill:#ff0000;fill-opacity:1;stroke:none"><path
         style="fill:#ff0000;fill-opacity:1;fill-rule:evenodd;stroke:none;stroke-width:2;stroke-linecap:butt;stroke-linejoin:miter;stroke-miterlimit:4;stroke-dasharray:none;stroke-opacity:1"
         d="m 150.53125,637.75 -0.875,1.8125 L 181,654.28125 181.875,652.46875 150.53125,637.75 Z"
         id="path6323" /><path
         style="fill:#ff0000;fill-opacity:1;fill-rule:evenodd;stroke:none;stroke-width:0.4pt;marker-start:none"
         d="m 185.6179,655.34697 -7.96404,0.67857 3.40109,-7.24103 4.56295,6.56246 z"
         id="path6382" /></g><text
       xml:space="preserve"
       style="font-style:normal;font-variant:normal;font-weight:normal;font-stretch:normal;font-size:15.75650978px;font-family:Sans;-inkscape-font-specification:Sans;text-align:center;text-anchor:middle;fill:#000000;fill-opacity:1;stroke:none;stroke-width:1px;stroke-linecap:butt;stroke-linejoin:miter;stroke-opacity:1"
       x="203.93417"
       y="705.53381"
       id="text6327"><tspan
         id="tspan6329"
         x="203.93417"
         y="705.53381"
         style="font-size:18.90781212px">3</tspan></text>
<text
       id="text6331"
       y="815.72766"
       x="134.11308"
       style="font-style:normal;font-variant:normal;font-weight:normal;font-stretch:normal;font-size:15.75650978px;font-family:Sans;-inkscape-font-specification:Sans;text-align:center;text-anchor:middle;fill:#000000;fill-opacity:1;stroke:none;stroke-width:1px;stroke-linecap:butt;stroke-linejoin:miter;stroke-opacity:1"
       xml:space="preserve"><tspan
         style="font-size:18.90781212px"
         y="815.72766"
         x="134.11308"
         id="tspan6333">3</tspan></text>
<text
       xml:space="preserve"
       style="font-style:normal;font-variant:normal;font-weight:normal;font-stretch:normal;font-size:15.75650978px;font-family:Sans;-inkscape-font-specification:Sans;text-align:center;text-anchor:middle;fill:#000000;fill-opacity:1;stroke:none;stroke-width:1px;stroke-linecap:butt;stroke-linejoin:miter;stroke-opacity:1"
       x="78.066231"
       y="885.54877"
       id="text6335"><tspan
         id="tspan6337"
         x="78.066231"
         y="885.54877"
         style="font-size:18.90781212px">3</tspan></text>
<text
       id="text6339"
       y="970.09406"
       x="78.283188"
       style="font-style:normal;font-variant:normal;font-weight:normal;font-stretch:normal;font-size:15.75650978px;font-family:Sans;-inkscape-font-specification:Sans;text-align:center;text-anchor:middle;fill:#000000;fill-opacity:1;stroke:none;stroke-width:1px;stroke-linecap:butt;stroke-linejoin:miter;stroke-opacity:1"
       xml:space="preserve"><tspan
         style="font-size:18.90781212px"
         y="970.09406"
         x="78.283188"
         id="tspan6341">2</tspan></text>
<text
       xml:space="preserve"
       style="font-style:normal;font-variant:normal;font-weight:normal;font-stretch:normal;font-size:15.75650978px;font-family:Sans;-inkscape-font-specification:Sans;text-align:center;text-anchor:middle;fill:#000000;fill-opacity:1;stroke:none;stroke-width:1px;stroke-linecap:butt;stroke-linejoin:miter;stroke-opacity:1"
       x="78.283188"
       y="1041.3401"
       id="text6343"><tspan
         id="tspan6345"
         x="78.283188"
         y="1041.3401"
         style="font-size:18.90781212px">2</tspan></text>
<text
       id="text6347"
       y="896.47321"
       x="203.80492"
       style="font-style:normal;font-variant:normal;font-weight:normal;font-stretch:normal;font-size:15.75650978px;font-family:Sans;-inkscape-font-specification:Sans;text-align:center;text-anchor:middle;fill:#000000;fill-opacity:1;stroke:none;stroke-width:1px;stroke-linecap:butt;stroke-linejoin:miter;stroke-opacity:1"
       xml:space="preserve"><tspan
         style="font-size:18.90781212px"
         y="896.47321"
         x="203.80492"
         id="tspan6349">12</tspan></text>
<text
       id="text6351"
       y="964.39435"
       x="134.08076"
       style="font-style:normal;font-variant:normal;font-weight:normal;font-stretch:normal;font-size:15.75650978px;font-family:Sans;-inkscape-font-specification:Sans;text-align:center;text-anchor:middle;fill:#000000;fill-opacity:1;stroke:none;stroke-width:1px;stroke-linecap:butt;stroke-linejoin:miter;stroke-opacity:1"
       xml:space="preserve"><tspan
         style="font-size:18.90781212px"
         y="964.39435"
         x="134.08076"
         id="tspan6353">8</tspan></text>
</g></svg>
